<svg width="552" height="98" viewBox="0 0 552 98" fill="none" xmlns="http://www.w3.org/2000/svg">
<path d="M518.333 58.3333H475.666C474.252 58.3333 472.895 57.7714 471.895 56.7712C470.895 55.7711 470.333 54.4145 470.333 53V21C470.333 19.5855 470.895 18.229 471.895 17.2288C472.895 16.2286 474.252 15.6667 475.666 15.6667H518.333C519.747 15.6667 521.104 16.2286 522.104 17.2288C523.104 18.229 523.666 19.5855 523.666 21V53C523.666 54.4145 523.104 55.7711 522.104 56.7712C521.104 57.7714 519.747 58.3333 518.333 58.3333ZM475.666 21V53H518.333V21H475.666ZM506.333 47.6667C504.565 47.6667 502.869 46.9643 501.619 45.7141C500.369 44.4638 499.666 42.7681 499.666 41C499.666 39.2319 500.369 37.5362 501.619 36.286C502.869 35.0357 504.565 34.3334 506.333 34.3334C508.101 34.3334 509.797 35.0357 511.047 36.286C512.297 37.5362 513 39.2319 513 41C513 42.7681 512.297 44.4638 511.047 45.7141C509.797 46.9643 508.101 47.6667 506.333 47.6667ZM495.666 47.6667C493.898 47.6667 492.203 46.9643 490.952 45.7141C489.702 44.4638 489 42.7681 489 41C489 39.2319 489.702 37.5362 490.952 36.286C492.203 35.0357 493.898 34.3334 495.666 34.3334C497.114 34.3334 498.52 34.8134 499.666 35.6987C498.839 36.313 498.168 37.1122 497.705 38.0325C497.242 38.9528 497.001 39.9686 497.001 40.9987C497.001 42.0288 497.242 43.0445 497.705 43.9648C498.168 44.8851 498.839 45.6844 499.666 46.2987C498.52 47.184 497.114 47.664 495.666 47.6667Z" fill="white"/>
<path d="M265.608 10.4307C267.921 9.49282 270.509 9.49282 272.822 10.4307L292.017 18.2131C292.844 18.548 293.552 19.1221 294.05 19.8619C294.549 20.6016 294.815 21.4734 294.815 22.3654V36.7936C293.673 35.6961 292.38 34.7668 290.975 34.0339V23.8963L271.135 31.5558V37.4413C269.338 39.3618 268.022 41.6816 267.295 44.2099V31.5533L247.455 23.84V47.0797C247.456 47.2067 247.494 47.3309 247.565 47.4362C247.636 47.5415 247.737 47.6232 247.855 47.671L267.052 55.4534C267.131 55.4867 267.213 55.5174 267.295 55.5456L267.779 55.7401C267.93 55.8016 268.081 55.8528 268.237 55.8937C268.872 57.2403 269.684 58.4896 270.644 59.6083C268.942 59.8644 267.203 59.6584 265.608 59.0118L246.411 51.2294C245.584 50.8941 244.877 50.3199 244.379 49.5801C243.881 48.8404 243.615 47.9689 243.615 47.0771V22.368C243.615 21.4762 243.881 20.6047 244.379 19.865C244.877 19.1252 245.584 18.551 246.411 18.2157L265.611 10.4333L265.608 10.4307ZM271.378 13.9891C269.991 13.4269 268.439 13.4269 267.052 13.9891L262.152 15.9757L281.421 23.4688L288.257 20.832L271.378 13.9891ZM250.246 20.8038L269.218 28.1817L276.104 25.5193L256.968 18.08L250.246 20.8038ZM283.295 34.72C279.561 34.72 275.98 36.2034 273.339 38.8439C270.699 41.4844 269.215 45.0657 269.215 48.8C269.215 52.5342 270.699 56.1155 273.339 58.7561C275.98 61.3966 279.561 62.88 283.295 62.88C287.029 62.88 290.611 61.3966 293.251 58.7561C295.892 56.1155 297.375 52.5342 297.375 48.8C297.375 45.0657 295.892 41.4844 293.251 38.8439C290.611 36.2034 287.029 34.72 283.295 34.72ZM274.34 48.6925L274.379 48.4723L274.43 48.311L274.52 48.1369L274.601 48.0166L281.109 41.4937L281.288 41.3478C281.535 41.1792 281.832 41.1021 282.129 41.1297C282.427 41.1573 282.705 41.288 282.916 41.4991C283.127 41.7102 283.258 41.9885 283.286 42.2858C283.313 42.583 283.236 42.8806 283.067 43.127L282.919 43.3062L278.703 47.52H292.255L292.486 47.5405C292.741 47.5872 292.977 47.7107 293.161 47.8945C293.345 48.0784 293.468 48.3138 293.515 48.5696L293.535 48.8L293.515 49.0304C293.468 49.2861 293.345 49.5216 293.161 49.7054C292.977 49.8893 292.741 50.0128 292.486 50.0595L292.255 50.08L278.708 50.0825L282.919 54.2937L283.067 54.4729C283.215 54.6867 283.294 54.9403 283.294 55.2C283.294 55.4597 283.215 55.7133 283.067 55.927L282.919 56.1062L282.742 56.2521C282.529 56.3997 282.275 56.4787 282.015 56.4787C281.756 56.4787 281.502 56.3997 281.288 56.2521L281.109 56.1062L274.678 49.6729L274.563 49.5296L274.456 49.3401L274.379 49.1277L274.348 48.9741L274.335 48.8307L274.34 48.6925Z" fill="white"/>
<path d="M18 32H42V36H18V32Z" fill="white"/>
<path d="M14 22H34V26H14V22Z" fill="white"/>
<path d="M69.8377 33.212L63.8377 19.212C63.6837 18.8522 63.4274 18.5455 63.1007 18.33C62.7739 18.1145 62.3911 17.9998 61.9997 18H55.9997V14C55.9997 13.4696 55.789 12.9609 55.4139 12.5858C55.0388 12.2107 54.5301 12 53.9997 12H21.9997V16H51.9997V41.112C51.0884 41.6412 50.2908 42.3456 49.653 43.1845C49.0152 44.0234 48.5498 44.9803 48.2837 46H35.7157C35.2289 44.1147 34.0712 42.4716 32.4597 41.3788C30.8481 40.286 28.8933 39.8184 26.9617 40.0638C25.0301 40.3091 23.2542 41.2505 21.967 42.7115C20.6799 44.1726 19.9697 46.0529 19.9697 48C19.9697 49.9472 20.6799 51.8275 21.967 53.2885C23.2542 54.7495 25.0301 55.6909 26.9617 55.9362C28.8933 56.1816 30.8481 55.714 32.4597 54.6212C34.0712 53.5284 35.2289 51.8853 35.7157 50H48.2837C48.7188 51.7165 49.7138 53.2389 51.1112 54.3263C52.5087 55.4138 54.2289 56.0043 55.9997 56.0043C57.7705 56.0043 59.4906 55.4138 60.8881 54.3263C62.2856 53.2389 63.2806 51.7165 63.7157 50H67.9997C68.5301 50 69.0388 49.7893 69.4139 49.4142C69.789 49.0391 69.9997 48.5304 69.9997 48V34C69.9998 33.7291 69.9447 33.4609 69.8377 33.212ZM27.9997 52C27.2086 52 26.4352 51.7654 25.7774 51.3259C25.1196 50.8864 24.6069 50.2616 24.3042 49.5307C24.0014 48.7998 23.9222 47.9956 24.0766 47.2196C24.2309 46.4437 24.6119 45.731 25.1713 45.1716C25.7307 44.6122 26.4434 44.2312 27.2193 44.0769C27.9953 43.9225 28.7995 44.0017 29.5304 44.3045C30.2613 44.6072 30.886 45.1199 31.3256 45.7777C31.7651 46.4355 31.9997 47.2089 31.9997 48C31.9986 49.0605 31.5769 50.0773 30.827 50.8273C30.077 51.5772 29.0602 51.9989 27.9997 52ZM55.9997 22H60.6797L64.9677 32H55.9997V22ZM55.9997 52C55.2086 52 54.4352 51.7654 53.7774 51.3259C53.1196 50.8864 52.6069 50.2616 52.3042 49.5307C52.0014 48.7998 51.9222 47.9956 52.0766 47.2196C52.2309 46.4437 52.6119 45.731 53.1713 45.1716C53.7307 44.6122 54.4434 44.2312 55.2193 44.0769C55.9953 43.9225 56.7995 44.0017 57.5304 44.3045C58.2613 44.6072 58.886 45.1199 59.3256 45.7777C59.7651 46.4355 59.9997 47.2089 59.9997 48C59.9986 49.0605 59.5769 50.0773 58.827 50.8273C58.077 51.5772 57.0602 51.9989 55.9997 52ZM65.9997 46H63.7157C63.2751 44.2869 62.2786 42.7684 60.8822 41.6825C59.4858 40.5967 57.7686 40.0049 55.9997 40V36H65.9997V46Z" fill="white"/>
<path d="M2.5 94V89.1172H7.49219V87.8672H2.5V83.9922H7.9375V82.7266H1.09375V94H2.5ZM11.4688 92.9844C10.4922 92.9844 9.84375 92.4766 9.84375 91.7031C9.84375 90.9375 10.4688 90.4531 11.5625 90.3828L13.7344 90.25V90.9141C13.7344 92.0859 12.75 92.9844 11.4688 92.9844ZM11.1641 94.1406C12.2578 94.1406 13.2891 93.5312 13.7734 92.6016H13.8047V94H15.0938V88.3828C15.0938 86.7656 13.8906 85.7344 11.9844 85.7344C10.0625 85.7344 8.85938 86.8125 8.76562 88.2188H10.0781C10.25 87.4219 10.9062 86.9297 11.9531 86.9297C13.0781 86.9297 13.7344 87.5234 13.7344 88.5156V89.1953L11.4062 89.3281C9.53125 89.4375 8.46094 90.3125 8.46094 91.7031C8.46094 93.1641 9.54688 94.1406 11.1641 94.1406ZM16.6797 88.1172C16.6797 89.2266 17.3828 89.9609 18.8125 90.3281L20.2422 90.6953C21.1562 90.9375 21.4922 91.25 21.4922 91.8281C21.4922 92.5625 20.8125 93.0312 19.7109 93.0312C18.6094 93.0312 17.9688 92.5781 17.8203 91.7344H16.4609C16.6016 93.1719 17.8438 94.1406 19.625 94.1406C21.5234 94.1406 22.8594 93.1406 22.8594 91.7266C22.8594 90.5312 22.2656 89.9375 20.625 89.5234L19.3672 89.2188C18.4453 88.9844 18.0156 88.6094 18.0156 88.0469C18.0156 87.3359 18.6719 86.8438 19.6641 86.8438C20.6641 86.8438 21.2969 87.3281 21.3906 88.1094H22.6875C22.625 86.7344 21.3906 85.7344 19.7109 85.7344C17.9219 85.7344 16.6797 86.7266 16.6797 88.1172ZM24.7109 83.9141V85.875H23.5V86.9922H24.7109V91.8906C24.7109 93.4531 25.2891 94.0625 26.7812 94.0625C27.1016 94.0625 27.4766 94.0391 27.6406 94V92.8594C27.5469 92.875 27.2344 92.8984 27.0781 92.8984C26.3828 92.8984 26.0703 92.5625 26.0703 91.8203V86.9922H27.6484V85.875H26.0703V83.9141H24.7109ZM35.4609 94.1406C36.6328 94.1406 37.5625 93.5625 38.0859 92.625H38.1094V94H39.4062V82.7266H38.0469V87.1953H38.0156C37.5312 86.3047 36.5938 85.7344 35.4297 85.7344C33.3828 85.7344 31.9844 87.3906 31.9844 89.9375C31.9844 92.4844 33.3906 94.1406 35.4609 94.1406ZM35.7188 86.9297C37.1172 86.9297 38.0547 88.125 38.0547 89.9375C38.0547 91.7578 37.1172 92.9453 35.7188 92.9453C34.2812 92.9453 33.375 91.7812 33.375 89.9375C33.375 88.1016 34.2812 86.9297 35.7188 86.9297ZM44.5 86.9141C45.7812 86.9141 46.6328 87.8828 46.6641 89.2422H42.25C42.3359 87.8906 43.2266 86.9141 44.5 86.9141ZM46.6328 91.6719C46.4062 92.4375 45.6484 92.9609 44.6172 92.9609C43.1562 92.9609 42.2422 91.9375 42.2422 90.3828V90.3047H48.0703V89.7891C48.0703 87.3281 46.7188 85.7344 44.5234 85.7344C42.2812 85.7344 40.8438 87.4453 40.8438 89.9688C40.8438 92.5234 42.2578 94.1406 44.5859 94.1406C46.3594 94.1406 47.7344 93.0938 47.9688 91.6719H46.6328ZM49.5156 94H50.875V82.7266H49.5156V94ZM52.7812 94H54.1406V85.875H52.7812V94ZM53.4609 84.5078C53.9297 84.5078 54.3125 84.125 54.3125 83.6641C54.3125 83.1953 53.9297 82.8203 53.4609 82.8203C53 82.8203 52.6172 83.1953 52.6172 83.6641C52.6172 84.125 53 84.5078 53.4609 84.5078ZM62.6406 85.875H61.2266L58.9766 92.5547H58.9453L56.7031 85.875H55.2734L58.2656 94H59.6562L62.6406 85.875ZM66.7344 86.9141C68.0156 86.9141 68.8672 87.8828 68.8984 89.2422H64.4844C64.5703 87.8906 65.4609 86.9141 66.7344 86.9141ZM68.8672 91.6719C68.6406 92.4375 67.8828 92.9609 66.8516 92.9609C65.3906 92.9609 64.4766 91.9375 64.4766 90.3828V90.3047H70.3047V89.7891C70.3047 87.3281 68.9531 85.7344 66.7578 85.7344C64.5156 85.7344 63.0781 87.4453 63.0781 89.9688C63.0781 92.5234 64.4922 94.1406 66.8203 94.1406C68.5938 94.1406 69.9688 93.0938 70.2031 91.6719H68.8672ZM71.6797 94H73.0391V88.9375C73.0391 87.7891 73.7266 87.0312 74.7812 87.0312C75.1094 87.0312 75.3984 87.0703 75.5078 87.1094V85.7891C75.3984 85.7734 75.1953 85.7344 74.9609 85.7344C74.0078 85.7344 73.2578 86.3047 72.9922 87.2031H72.9609V85.875H71.6797V94ZM77.2891 97.0391C78.7578 97.0391 79.4297 96.4688 80.125 94.5703L83.3203 85.875H81.8906L79.6406 92.6406H79.6172L77.3672 85.875H75.9141L78.9141 94.0078L78.7266 94.5781C78.4141 95.5234 77.9922 95.8906 77.2344 95.8906C77.0625 95.8906 76.8516 95.8828 76.7031 95.8516V96.9922C76.8516 97.0234 77.125 97.0391 77.2891 97.0391Z" fill="white"/>
<path d="M442.555 90.8984C442.688 92.8906 444.344 94.1875 446.734 94.1875C449.328 94.1875 450.953 92.8984 450.953 90.8359C450.953 89.2188 450.008 88.3203 447.672 87.7344L446.492 87.4219C444.961 87.0234 444.336 86.5156 444.336 85.6641C444.336 84.5625 445.352 83.8047 446.812 83.8047C448.281 83.8047 449.258 84.5469 449.383 85.7578H450.789C450.727 83.8672 449.102 82.5391 446.859 82.5391C444.516 82.5391 442.875 83.8516 442.875 85.7266C442.875 87.2578 443.797 88.1719 445.875 88.7031L447.32 89.0781C448.836 89.4688 449.5 90.0547 449.5 91.0078C449.5 92.1172 448.391 92.9219 446.867 92.9219C445.258 92.9219 444.102 92.1172 443.969 90.8984H442.555ZM455.641 86.9141C456.922 86.9141 457.773 87.8828 457.805 89.2422H453.391C453.477 87.8906 454.367 86.9141 455.641 86.9141ZM457.773 91.6719C457.547 92.4375 456.789 92.9609 455.758 92.9609C454.297 92.9609 453.383 91.9375 453.383 90.3828V90.3047H459.211V89.7891C459.211 87.3281 457.859 85.7344 455.664 85.7344C453.422 85.7344 451.984 87.4453 451.984 89.9688C451.984 92.5234 453.398 94.1406 455.727 94.1406C457.5 94.1406 458.875 93.0938 459.109 91.6719H457.773ZM467.336 88.5391C467.164 87.0781 465.953 85.7344 463.922 85.7344C461.68 85.7344 460.188 87.375 460.188 89.9375C460.188 92.5547 461.688 94.1406 463.938 94.1406C465.781 94.1406 467.141 93 467.352 91.3828H466.016C465.781 92.3594 465.055 92.9453 463.945 92.9453C462.539 92.9453 461.57 91.8281 461.57 89.9375C461.57 88.0938 462.523 86.9297 463.93 86.9297C465.125 86.9297 465.812 87.6562 466.008 88.5391H467.336ZM475.273 85.875H473.914V90.6484C473.914 92.0312 473.117 92.9375 471.797 92.9375C470.539 92.9375 469.922 92.2266 469.922 90.9062V85.875H468.562V91.1484C468.562 92.9922 469.602 94.1406 471.375 94.1406C472.625 94.1406 473.469 93.6172 473.953 92.6797H473.984V94H475.273V85.875ZM477.039 94H478.398V88.9375C478.398 87.7891 479.086 87.0312 480.141 87.0312C480.469 87.0312 480.758 87.0703 480.867 87.1094V85.7891C480.758 85.7734 480.555 85.7344 480.32 85.7344C479.367 85.7344 478.617 86.3047 478.352 87.2031H478.32V85.875H477.039V94ZM484.844 86.9141C486.125 86.9141 486.977 87.8828 487.008 89.2422H482.594C482.68 87.8906 483.57 86.9141 484.844 86.9141ZM486.977 91.6719C486.75 92.4375 485.992 92.9609 484.961 92.9609C483.5 92.9609 482.586 91.9375 482.586 90.3828V90.3047H488.414V89.7891C488.414 87.3281 487.062 85.7344 484.867 85.7344C482.625 85.7344 481.188 87.4453 481.188 89.9688C481.188 92.5234 482.602 94.1406 484.93 94.1406C486.703 94.1406 488.078 93.0938 488.312 91.6719H486.977ZM497.016 85.7344C495.836 85.7344 494.891 86.3359 494.391 87.25H494.359V85.875H493.07V96.7109H494.43V92.6797H494.461C494.945 93.5703 495.883 94.1406 497.047 94.1406C499.094 94.1406 500.492 92.4844 500.492 89.9375C500.492 87.3906 499.086 85.7344 497.016 85.7344ZM496.75 92.9453C495.359 92.9453 494.422 91.75 494.422 89.9375C494.422 88.1328 495.359 86.9297 496.75 86.9297C498.195 86.9297 499.102 88.1016 499.102 89.9375C499.102 91.7812 498.195 92.9453 496.75 92.9453ZM504.547 92.9844C503.57 92.9844 502.922 92.4766 502.922 91.7031C502.922 90.9375 503.547 90.4531 504.641 90.3828L506.812 90.25V90.9141C506.812 92.0859 505.828 92.9844 504.547 92.9844ZM504.242 94.1406C505.336 94.1406 506.367 93.5312 506.852 92.6016H506.883V94H508.172V88.3828C508.172 86.7656 506.969 85.7344 505.062 85.7344C503.141 85.7344 501.938 86.8125 501.844 88.2188H503.156C503.328 87.4219 503.984 86.9297 505.031 86.9297C506.156 86.9297 506.812 87.5234 506.812 88.5156V89.1953L504.484 89.3281C502.609 89.4375 501.539 90.3125 501.539 91.7031C501.539 93.1641 502.625 94.1406 504.242 94.1406ZM510.57 97.0391C512.039 97.0391 512.711 96.4688 513.406 94.5703L516.602 85.875H515.172L512.922 92.6406H512.898L510.648 85.875H509.195L512.195 94.0078L512.008 94.5781C511.695 95.5234 511.273 95.8906 510.516 95.8906C510.344 95.8906 510.133 95.8828 509.984 95.8516V96.9922C510.133 97.0234 510.406 97.0391 510.57 97.0391ZM517.68 94H519.039V88.9062C519.039 87.7812 519.82 86.9375 520.898 86.9375C521.906 86.9375 522.562 87.5781 522.562 88.5547V94H523.922V88.8359C523.922 87.7344 524.68 86.9375 525.758 86.9375C526.828 86.9375 527.445 87.5938 527.445 88.7031V94H528.805V88.3906C528.805 86.7812 527.766 85.7344 526.156 85.7344C525.016 85.7344 524.062 86.3125 523.609 87.2812H523.578C523.227 86.2969 522.406 85.7344 521.297 85.7344C520.203 85.7344 519.375 86.3125 518.992 87.1719H518.961V85.875H517.68V94ZM533.797 86.9141C535.078 86.9141 535.93 87.8828 535.961 89.2422H531.547C531.633 87.8906 532.523 86.9141 533.797 86.9141ZM535.93 91.6719C535.703 92.4375 534.945 92.9609 533.914 92.9609C532.453 92.9609 531.539 91.9375 531.539 90.3828V90.3047H537.367V89.7891C537.367 87.3281 536.016 85.7344 533.82 85.7344C531.578 85.7344 530.141 87.4453 530.141 89.9688C530.141 92.5234 531.555 94.1406 533.883 94.1406C535.656 94.1406 537.031 93.0938 537.266 91.6719H535.93ZM538.742 94H540.102V89.2188C540.102 87.8438 540.938 86.9375 542.219 86.9375C543.469 86.9375 544.086 87.6562 544.086 88.9688V94H545.445V88.7266C545.445 86.8828 544.414 85.7344 542.633 85.7344C541.375 85.7344 540.508 86.2969 540.055 87.1719H540.023V85.875H538.742V94ZM547.617 83.9141V85.875H546.406V86.9922H547.617V91.8906C547.617 93.4531 548.195 94.0625 549.688 94.0625C550.008 94.0625 550.383 94.0391 550.547 94V92.8594C550.453 92.875 550.141 92.8984 549.984 92.8984C549.289 92.8984 548.977 92.5625 548.977 91.8203V86.9922H550.555V85.875H548.977V83.9141H547.617Z" fill="white"/>
<path d="M216.5 83.9766H219.133C220.586 83.9766 221.461 84.7812 221.461 86.1328C221.461 87.5156 220.641 88.2969 219.195 88.2969H216.5V83.9766ZM216.5 89.5391H219.195L221.609 94H223.258L220.648 89.3203C222.062 88.875 222.914 87.6562 222.914 86.0859C222.914 84.0547 221.492 82.7266 219.32 82.7266H215.094V94H216.5V89.5391ZM227.734 86.9141C229.016 86.9141 229.867 87.8828 229.898 89.2422H225.484C225.57 87.8906 226.461 86.9141 227.734 86.9141ZM229.867 91.6719C229.641 92.4375 228.883 92.9609 227.852 92.9609C226.391 92.9609 225.477 91.9375 225.477 90.3828V90.3047H231.305V89.7891C231.305 87.3281 229.953 85.7344 227.758 85.7344C225.516 85.7344 224.078 87.4453 224.078 89.9688C224.078 92.5234 225.492 94.1406 227.82 94.1406C229.594 94.1406 230.969 93.0938 231.203 91.6719H229.867ZM233.117 83.9141V85.875H231.906V86.9922H233.117V91.8906C233.117 93.4531 233.695 94.0625 235.188 94.0625C235.508 94.0625 235.883 94.0391 236.047 94V92.8594C235.953 92.875 235.641 92.8984 235.484 92.8984C234.789 92.8984 234.477 92.5625 234.477 91.8203V86.9922H236.055V85.875H234.477V83.9141H233.117ZM244.18 85.875H242.82V90.6484C242.82 92.0312 242.023 92.9375 240.703 92.9375C239.445 92.9375 238.828 92.2266 238.828 90.9062V85.875H237.469V91.1484C237.469 92.9922 238.508 94.1406 240.281 94.1406C241.531 94.1406 242.375 93.6172 242.859 92.6797H242.891V94H244.18V85.875ZM245.945 94H247.305V88.9375C247.305 87.7891 247.992 87.0312 249.047 87.0312C249.375 87.0312 249.664 87.0703 249.773 87.1094V85.7891C249.664 85.7734 249.461 85.7344 249.227 85.7344C248.273 85.7344 247.523 86.3047 247.258 87.2031H247.227V85.875H245.945V94ZM250.883 94H252.242V89.2188C252.242 87.8438 253.078 86.9375 254.359 86.9375C255.609 86.9375 256.227 87.6562 256.227 88.9688V94H257.586V88.7266C257.586 86.8828 256.555 85.7344 254.773 85.7344C253.516 85.7344 252.648 86.2969 252.195 87.1719H252.164V85.875H250.883V94ZM265.281 92.9844C264.305 92.9844 263.656 92.4766 263.656 91.7031C263.656 90.9375 264.281 90.4531 265.375 90.3828L267.547 90.25V90.9141C267.547 92.0859 266.562 92.9844 265.281 92.9844ZM264.977 94.1406C266.07 94.1406 267.102 93.5312 267.586 92.6016H267.617V94H268.906V88.3828C268.906 86.7656 267.703 85.7344 265.797 85.7344C263.875 85.7344 262.672 86.8125 262.578 88.2188H263.891C264.062 87.4219 264.719 86.9297 265.766 86.9297C266.891 86.9297 267.547 87.5234 267.547 88.5156V89.1953L265.219 89.3281C263.344 89.4375 262.273 90.3125 262.273 91.7031C262.273 93.1641 263.359 94.1406 264.977 94.1406ZM277.383 88.5391C277.211 87.0781 276 85.7344 273.969 85.7344C271.727 85.7344 270.234 87.375 270.234 89.9375C270.234 92.5547 271.734 94.1406 273.984 94.1406C275.828 94.1406 277.188 93 277.398 91.3828H276.062C275.828 92.3594 275.102 92.9453 273.992 92.9453C272.586 92.9453 271.617 91.8281 271.617 89.9375C271.617 88.0938 272.57 86.9297 273.977 86.9297C275.172 86.9297 275.859 87.6562 276.055 88.5391H277.383ZM285.398 88.5391C285.227 87.0781 284.016 85.7344 281.984 85.7344C279.742 85.7344 278.25 87.375 278.25 89.9375C278.25 92.5547 279.75 94.1406 282 94.1406C283.844 94.1406 285.203 93 285.414 91.3828H284.078C283.844 92.3594 283.117 92.9453 282.008 92.9453C280.602 92.9453 279.633 91.8281 279.633 89.9375C279.633 88.0938 280.586 86.9297 281.992 86.9297C283.188 86.9297 283.875 87.6562 284.07 88.5391H285.398ZM289.922 86.9141C291.203 86.9141 292.055 87.8828 292.086 89.2422H287.672C287.758 87.8906 288.648 86.9141 289.922 86.9141ZM292.055 91.6719C291.828 92.4375 291.07 92.9609 290.039 92.9609C288.578 92.9609 287.664 91.9375 287.664 90.3828V90.3047H293.492V89.7891C293.492 87.3281 292.141 85.7344 289.945 85.7344C287.703 85.7344 286.266 87.4453 286.266 89.9688C286.266 92.5234 287.68 94.1406 290.008 94.1406C291.781 94.1406 293.156 93.0938 293.391 91.6719H292.055ZM298.812 85.7344C297.633 85.7344 296.688 86.3359 296.188 87.25H296.156V85.875H294.867V96.7109H296.227V92.6797H296.258C296.742 93.5703 297.68 94.1406 298.844 94.1406C300.891 94.1406 302.289 92.4844 302.289 89.9375C302.289 87.3906 300.883 85.7344 298.812 85.7344ZM298.547 92.9453C297.156 92.9453 296.219 91.75 296.219 89.9375C296.219 88.1328 297.156 86.9297 298.547 86.9297C299.992 86.9297 300.898 88.1016 300.898 89.9375C300.898 91.7812 299.992 92.9453 298.547 92.9453ZM304.102 83.9141V85.875H302.891V86.9922H304.102V91.8906C304.102 93.4531 304.68 94.0625 306.172 94.0625C306.492 94.0625 306.867 94.0391 307.031 94V92.8594C306.938 92.875 306.625 92.8984 306.469 92.8984C305.773 92.8984 305.461 92.5625 305.461 91.8203V86.9922H307.039V85.875H305.461V83.9141H304.102ZM311.516 86.9141C312.797 86.9141 313.648 87.8828 313.68 89.2422H309.266C309.352 87.8906 310.242 86.9141 311.516 86.9141ZM313.648 91.6719C313.422 92.4375 312.664 92.9609 311.633 92.9609C310.172 92.9609 309.258 91.9375 309.258 90.3828V90.3047H315.086V89.7891C315.086 87.3281 313.734 85.7344 311.539 85.7344C309.297 85.7344 307.859 87.4453 307.859 89.9688C307.859 92.5234 309.273 94.1406 311.602 94.1406C313.375 94.1406 314.75 93.0938 314.984 91.6719H313.648ZM319.539 94.1406C320.711 94.1406 321.641 93.5625 322.164 92.625H322.188V94H323.484V82.7266H322.125V87.1953H322.094C321.609 86.3047 320.672 85.7344 319.508 85.7344C317.461 85.7344 316.062 87.3906 316.062 89.9375C316.062 92.4844 317.469 94.1406 319.539 94.1406ZM319.797 86.9297C321.195 86.9297 322.133 88.125 322.133 89.9375C322.133 91.7578 321.195 92.9453 319.797 92.9453C318.359 92.9453 317.453 91.7812 317.453 89.9375C317.453 88.1016 318.359 86.9297 319.797 86.9297Z" fill="white"/>
</svg>
