<svg width="152" height="24" viewBox="0 0 152 24" fill="none" xmlns="http://www.w3.org/2000/svg">
<g filter="url(#filter0_d_185_29)">
<path d="M12 -2.38419e-07H4V1.36H12C15.66 1.36 18.64 4.34 18.64 8C18.64 11.68 15.66 14.66 12 14.66H4V16H12C16.4 16 20 12.42 20 8C20 3.6 16.4 -2.38419e-07 12 -2.38419e-07ZM30.2652 13.1L22.9052 0.0199995L21.2852 -2.38419e-07L30.2652 16L39.2652 -2.38419e-07H37.6252L30.2652 13.1ZM51.2578 -2.38419e-07H43.2578V1.36H51.2578C54.9178 1.36 57.8978 4.34 57.8978 8C57.8978 11.68 54.9178 14.66 51.2578 14.66H43.2578V16H51.2578C55.6578 16 59.2578 12.42 59.2578 8C59.2578 3.6 55.6578 -2.38419e-07 51.2578 -2.38419e-07ZM75.5856 -2.38419e-07C73.2056 -2.38419e-07 71.2656 1.96 71.2656 4.34C71.2656 6.74 73.2056 8.68 75.5856 8.68H82.9256C84.5656 8.68 85.9056 10.02 85.9056 11.68C85.9056 13.32 84.5656 14.66 82.9256 14.66H71.2656V16H82.9256C85.3056 16 87.2656 14.06 87.2656 11.68C87.2656 9.28 85.3056 7.34 82.9256 7.34H75.5856C73.9456 7.34 72.6056 6 72.6056 4.34C72.6056 2.7 73.9456 1.36 75.5856 1.36H87.2656V-2.38419e-07H75.5856ZM105.906 7.34H92.6056V-2.38419e-07H91.2656V16H92.6056V8.68H105.906V16H107.266V-2.38419e-07H105.906V7.34ZM119.266 -2.38419e-07C114.846 -2.38419e-07 111.266 3.6 111.266 8C111.266 12.42 114.846 16 119.266 16C123.666 16 127.266 12.42 127.266 8C127.266 3.6 123.666 -2.38419e-07 119.266 -2.38419e-07ZM119.266 14.66C115.586 14.66 112.606 11.68 112.606 8C112.606 4.34 115.586 1.36 119.266 1.36C122.926 1.36 125.906 4.34 125.906 8C125.906 11.68 122.926 14.66 119.266 14.66ZM142.926 -2.38419e-07H131.266V1.36H142.926C144.566 1.36 145.906 2.7 145.906 4.34C145.906 6 144.566 7.34 142.926 7.34H131.266V16H132.606V8.68H142.926C145.306 8.68 147.266 6.74 147.266 4.34C147.266 1.96 145.306 -2.38419e-07 142.926 -2.38419e-07Z" fill="url(#paint0_linear_185_29)" shape-rendering="crispEdges"/>
<path d="M4 -2.38419e-07V-1H3V-2.38419e-07H4ZM4 1.36H3V2.36H4V1.36ZM4 14.66V13.66H3V14.66H4ZM4 16H3V17H4V16ZM12 -1H4V1H12V-1ZM3 -2.38419e-07V1.36H5V-2.38419e-07H3ZM4 2.36H12V0.359999H4V2.36ZM12 2.36C15.1077 2.36 17.64 4.89228 17.64 8H19.64C19.64 3.78772 16.2123 0.359999 12 0.359999V2.36ZM17.64 8C17.64 11.1297 15.1058 13.66 12 13.66V15.66C16.2142 15.66 19.64 12.2303 19.64 8H17.64ZM12 13.66H4V15.66H12V13.66ZM3 14.66V16H5V14.66H3ZM4 17H12V15H4V17ZM12 17C16.9507 17 21 12.9739 21 8H19C19 11.8661 15.8493 15 12 15V17ZM21 8C21 3.04772 16.9523 -1 12 -1V1C15.8477 1 19 4.15228 19 8H21ZM30.2652 13.1L29.3937 13.5904L30.2658 15.1404L31.137 13.5898L30.2652 13.1ZM22.9052 0.0199995L23.7767 -0.470388L23.494 -0.972808L22.9175 -0.979924L22.9052 0.0199995ZM21.2852 -2.38419e-07L21.2975 -0.999924L19.5652 -1.02131L20.4131 0.489433L21.2852 -2.38419e-07ZM30.2652 16L29.3931 16.4894L30.2642 18.0415L31.1367 16.4903L30.2652 16ZM39.2652 -2.38419e-07L40.1367 0.490261L40.975 -1H39.2652V-2.38419e-07ZM37.6252 -2.38419e-07V-1H37.04L36.7533 -0.489819L37.6252 -2.38419e-07ZM31.1367 12.6096L23.7767 -0.470388L22.0337 0.510387L29.3937 13.5904L31.1367 12.6096ZM22.9175 -0.979924L21.2975 -0.999924L21.2728 0.999924L22.8928 1.01992L22.9175 -0.979924ZM20.4131 0.489433L29.3931 16.4894L31.1372 15.5106L22.1572 -0.489433L20.4131 0.489433ZM31.1367 16.4903L40.1367 0.490261L38.3936 -0.490262L29.3936 15.5097L31.1367 16.4903ZM39.2652 -1H37.6252V1H39.2652V-1ZM36.7533 -0.489819L29.3933 12.6102L31.137 13.5898L38.497 0.489819L36.7533 -0.489819ZM43.2578 -2.38419e-07V-1H42.2578V-2.38419e-07H43.2578ZM43.2578 1.36H42.2578V2.36H43.2578V1.36ZM43.2578 14.66V13.66H42.2578V14.66H43.2578ZM43.2578 16H42.2578V17H43.2578V16ZM51.2578 -1H43.2578V1H51.2578V-1ZM42.2578 -2.38419e-07V1.36H44.2578V-2.38419e-07H42.2578ZM43.2578 2.36H51.2578V0.359999H43.2578V2.36ZM51.2578 2.36C54.3655 2.36 56.8978 4.89228 56.8978 8H58.8978C58.8978 3.78772 55.4701 0.359999 51.2578 0.359999V2.36ZM56.8978 8C56.8978 11.1297 54.3636 13.66 51.2578 13.66V15.66C55.4721 15.66 58.8978 12.2303 58.8978 8H56.8978ZM51.2578 13.66H43.2578V15.66H51.2578V13.66ZM42.2578 14.66V16H44.2578V14.66H42.2578ZM43.2578 17H51.2578V15H43.2578V17ZM51.2578 17C56.2085 17 60.2578 12.9739 60.2578 8H58.2578C58.2578 11.8661 55.1072 15 51.2578 15V17ZM60.2578 8C60.2578 3.04772 56.2101 -1 51.2578 -1V1C55.1055 1 58.2578 4.15228 58.2578 8H60.2578ZM71.2656 14.66V13.66H70.2656V14.66H71.2656ZM71.2656 16H70.2656V17H71.2656V16ZM87.2656 1.36V2.36H88.2656V1.36H87.2656ZM87.2656 -2.38419e-07H88.2656V-1H87.2656V-2.38419e-07ZM75.5856 -1C72.6473 -1 70.2656 1.41373 70.2656 4.34H72.2656C72.2656 2.50627 73.7639 1 75.5856 1V-1ZM70.2656 4.34C70.2656 7.28927 72.6503 9.68 75.5856 9.68V7.68C73.7609 7.68 72.2656 6.19072 72.2656 4.34H70.2656ZM75.5856 9.68H82.9256V7.68H75.5856V9.68ZM82.9256 9.68C84.009 9.68 84.9056 10.5679 84.9056 11.68H86.9056C86.9056 9.47207 85.1223 7.68 82.9256 7.68V9.68ZM84.9056 11.68C84.9056 12.7677 84.0133 13.66 82.9256 13.66V15.66C85.1179 15.66 86.9056 13.8723 86.9056 11.68H84.9056ZM82.9256 13.66H71.2656V15.66H82.9256V13.66ZM70.2656 14.66V16H72.2656V14.66H70.2656ZM71.2656 17H82.9256V15H71.2656V17ZM82.9256 17C85.8519 17 88.2656 14.6183 88.2656 11.68H86.2656C86.2656 13.5017 84.7594 15 82.9256 15V17ZM88.2656 11.68C88.2656 8.72472 85.8549 6.34 82.9256 6.34V8.34C84.7563 8.34 86.2656 9.83528 86.2656 11.68H88.2656ZM82.9256 6.34H75.5856V8.34H82.9256V6.34ZM75.5856 6.34C74.5023 6.34 73.6056 5.45207 73.6056 4.34H71.6056C71.6056 6.54793 73.389 8.34 75.5856 8.34V6.34ZM73.6056 4.34C73.6056 3.25228 74.4979 2.36 75.5856 2.36V0.359999C73.3933 0.359999 71.6056 2.14772 71.6056 4.34H73.6056ZM75.5856 2.36H87.2656V0.359999H75.5856V2.36ZM88.2656 1.36V-2.38419e-07H86.2656V1.36H88.2656ZM87.2656 -1H75.5856V1H87.2656V-1ZM105.906 7.34V8.34H106.906V7.34H105.906ZM92.6056 7.34H91.6056V8.34H92.6056V7.34ZM92.6056 -2.38419e-07H93.6056V-1H92.6056V-2.38419e-07ZM91.2656 -2.38419e-07V-1H90.2656V-2.38419e-07H91.2656ZM91.2656 16H90.2656V17H91.2656V16ZM92.6056 16V17H93.6056V16H92.6056ZM92.6056 8.68V7.68H91.6056V8.68H92.6056ZM105.906 8.68H106.906V7.68H105.906V8.68ZM105.906 16H104.906V17H105.906V16ZM107.266 16V17H108.266V16H107.266ZM107.266 -2.38419e-07H108.266V-1H107.266V-2.38419e-07ZM105.906 -2.38419e-07V-1H104.906V-2.38419e-07H105.906ZM105.906 6.34H92.6056V8.34H105.906V6.34ZM93.6056 7.34V-2.38419e-07H91.6056V7.34H93.6056ZM92.6056 -1H91.2656V1H92.6056V-1ZM90.2656 -2.38419e-07V16H92.2656V-2.38419e-07H90.2656ZM91.2656 17H92.6056V15H91.2656V17ZM93.6056 16V8.68H91.6056V16H93.6056ZM92.6056 9.68H105.906V7.68H92.6056V9.68ZM104.906 8.68V16H106.906V8.68H104.906ZM105.906 17H107.266V15H105.906V17ZM108.266 16V-2.38419e-07H106.266V16H108.266ZM107.266 -1H105.906V1H107.266V-1ZM104.906 -2.38419e-07V7.34H106.906V-2.38419e-07H104.906ZM119.266 -1C114.292 -1 110.266 3.04934 110.266 8H112.266C112.266 4.15066 115.4 1 119.266 1V-1ZM110.266 8C110.266 12.9723 114.293 17 119.266 17V15C115.398 15 112.266 11.8677 112.266 8H110.266ZM119.266 17C124.216 17 128.266 12.9739 128.266 8H126.266C126.266 11.8661 123.115 15 119.266 15V17ZM128.266 8C128.266 3.04772 124.218 -1 119.266 -1V1C123.113 1 126.266 4.15228 126.266 8H128.266ZM119.266 13.66C116.138 13.66 113.606 11.1277 113.606 8H111.606C111.606 12.2323 115.033 15.66 119.266 15.66V13.66ZM113.606 8C113.606 4.89424 116.136 2.36 119.266 2.36V0.359999C115.035 0.359999 111.606 3.78576 111.606 8H113.606ZM119.266 2.36C122.373 2.36 124.906 4.89228 124.906 8H126.906C126.906 3.78772 123.478 0.359999 119.266 0.359999V2.36ZM124.906 8C124.906 11.1297 122.371 13.66 119.266 13.66V15.66C123.48 15.66 126.906 12.2303 126.906 8H124.906ZM131.266 -2.38419e-07V-1H130.266V-2.38419e-07H131.266ZM131.266 1.36H130.266V2.36H131.266V1.36ZM131.266 7.34V6.34H130.266V7.34H131.266ZM131.266 16H130.266V17H131.266V16ZM132.606 16V17H133.606V16H132.606ZM132.606 8.68V7.68H131.606V8.68H132.606ZM142.926 -1H131.266V1H142.926V-1ZM130.266 -2.38419e-07V1.36H132.266V-2.38419e-07H130.266ZM131.266 2.36H142.926V0.359999H131.266V2.36ZM142.926 2.36C144.013 2.36 144.906 3.25228 144.906 4.34H146.906C146.906 2.14772 145.118 0.359999 142.926 0.359999V2.36ZM144.906 4.34C144.906 5.45207 144.009 6.34 142.926 6.34V8.34C145.122 8.34 146.906 6.54793 146.906 4.34H144.906ZM142.926 6.34H131.266V8.34H142.926V6.34ZM130.266 7.34V16H132.266V7.34H130.266ZM131.266 17H132.606V15H131.266V17ZM133.606 16V8.68H131.606V16H133.606ZM132.606 9.68H142.926V7.68H132.606V9.68ZM142.926 9.68C145.855 9.68 148.266 7.29528 148.266 4.34H146.266C146.266 6.18472 144.756 7.68 142.926 7.68V9.68ZM148.266 4.34C148.266 1.40771 145.858 -1 142.926 -1V1C144.753 1 146.266 2.51228 146.266 4.34H148.266Z" fill="white" fill-opacity="0.3"/>
</g>
<defs>
<filter id="filter0_d_185_29" x="0" y="0" width="151.266" height="24" filterUnits="userSpaceOnUse" color-interpolation-filters="sRGB">
<feFlood flood-opacity="0" result="BackgroundImageFix"/>
<feColorMatrix in="SourceAlpha" type="matrix" values="0 0 0 0 0 0 0 0 0 0 0 0 0 0 0 0 0 0 127 0" result="hardAlpha"/>
<feOffset dy="4"/>
<feGaussianBlur stdDeviation="2"/>
<feComposite in2="hardAlpha" operator="out"/>
<feColorMatrix type="matrix" values="0 0 0 0 0 0 0 0 0 0 0 0 0 0 0 0 0 0 0.25 0"/>
<feBlend mode="normal" in2="BackgroundImageFix" result="effect1_dropShadow_185_29"/>
<feBlend mode="normal" in="SourceGraphic" in2="effect1_dropShadow_185_29" result="shape"/>
</filter>
<linearGradient id="paint0_linear_185_29" x1="76" y1="-2" x2="76" y2="18" gradientUnits="userSpaceOnUse">
<stop stop-color="#0461A0"/>
<stop offset="1" stop-color="#0461A0" stop-opacity="0.55"/>
</linearGradient>
</defs>
</svg>
