<svg width="294" height="48" viewBox="0 0 294 48" fill="none" xmlns="http://www.w3.org/2000/svg">
<g filter="url(#filter0_d_406_4)">
<path d="M63.607 33.765L47.783 5.643L44.3 5.6L63.607 40L82.957 5.6H79.431L63.607 33.765ZM104.441 5.6H87.2412V8.524H104.441C112.31 8.524 118.717 14.931 118.717 22.8C118.717 30.712 112.31 37.119 104.441 37.119H87.2412V40H104.441C113.901 40 121.641 32.303 121.641 22.8C121.641 13.34 113.901 5.6 104.441 5.6ZM148.146 5.6C143.029 5.6 138.858 9.814 138.858 14.931C138.858 20.091 143.029 24.262 148.146 24.262H163.927C167.453 24.262 170.334 27.143 170.334 30.712C170.334 34.238 167.453 37.119 163.927 37.119H138.858V40H163.927C169.044 40 173.258 35.829 173.258 30.712C173.258 25.552 169.044 21.381 163.927 21.381H148.146C144.62 21.381 141.739 18.5 141.739 14.931C141.739 11.405 144.62 8.524 148.146 8.524H173.258V5.6H148.146ZM209.034 21.381H180.439V5.6H177.558V40H180.439V24.262H209.034V40H211.958V5.6H209.034V21.381ZM233.458 5.6C223.955 5.6 216.258 13.34 216.258 22.8C216.258 32.303 223.955 40 233.458 40C242.918 40 250.658 32.303 250.658 22.8C250.658 13.34 242.918 5.6 233.458 5.6ZM233.458 37.119C225.546 37.119 219.139 30.712 219.139 22.8C219.139 14.931 225.546 8.524 233.458 8.524C241.327 8.524 247.734 14.931 247.734 22.8C247.734 30.712 241.327 37.119 233.458 37.119ZM280.027 5.6H254.958V8.524H280.027C283.553 8.524 286.434 11.405 286.434 14.931C286.434 18.5 283.553 21.381 280.027 21.381H254.958V40H257.839V24.262H280.027C285.144 24.262 289.358 20.091 289.358 14.931C289.358 9.814 285.144 5.6 280.027 5.6Z" fill="url(#paint0_linear_406_4)" shape-rendering="crispEdges"/>
<path d="M63.607 33.765L62.7355 34.2554L63.6077 35.8054L64.4788 34.2548L63.607 33.765ZM47.783 5.643L48.6545 5.15261L48.3718 4.65019L47.7953 4.64308L47.783 5.643ZM44.3 5.6L44.3123 4.60008L42.5801 4.57869L43.428 6.08943L44.3 5.6ZM63.607 40L62.735 40.4894L63.606 42.0415L64.4786 40.4903L63.607 40ZM82.957 5.6L83.8286 6.09026L84.6669 4.6H82.957V5.6ZM79.431 5.6V4.6H78.8458L78.5592 5.11018L79.431 5.6ZM64.4785 33.2746L48.6545 5.15261L46.9115 6.13339L62.7355 34.2554L64.4785 33.2746ZM47.7953 4.64308L44.3123 4.60008L44.2877 6.59992L47.7707 6.64292L47.7953 4.64308ZM43.428 6.08943L62.735 40.4894L64.479 39.5106L45.172 5.11057L43.428 6.08943ZM64.4786 40.4903L83.8286 6.09026L82.0854 5.10974L62.7354 39.5097L64.4786 40.4903ZM82.957 4.6H79.431V6.6H82.957V4.6ZM78.5592 5.11018L62.7352 33.2752L64.4788 34.2548L80.3028 6.08982L78.5592 5.11018ZM87.2412 5.6V4.6H86.2412V5.6H87.2412ZM87.2412 8.524H86.2412V9.524H87.2412V8.524ZM87.2412 37.119V36.119H86.2412V37.119H87.2412ZM87.2412 40H86.2412V41H87.2412V40ZM104.441 4.6H87.2412V6.6H104.441V4.6ZM86.2412 5.6V8.524H88.2412V5.6H86.2412ZM87.2412 9.524H104.441V7.524H87.2412V9.524ZM104.441 9.524C111.758 9.524 117.717 15.4833 117.717 22.8H119.717C119.717 14.3787 112.862 7.524 104.441 7.524V9.524ZM117.717 22.8C117.717 30.1617 111.756 36.119 104.441 36.119V38.119C112.864 38.119 119.717 31.2623 119.717 22.8H117.717ZM104.441 36.119H87.2412V38.119H104.441V36.119ZM86.2412 37.119V40H88.2412V37.119H86.2412ZM87.2412 41H104.441V39H87.2412V41ZM104.441 41C114.452 41 122.641 32.8569 122.641 22.8H120.641C120.641 31.7491 113.351 39 104.441 39V41ZM122.641 22.8C122.641 12.7877 114.453 4.6 104.441 4.6V6.6C113.349 6.6 120.641 13.8923 120.641 22.8H122.641ZM138.858 37.119V36.119H137.858V37.119H138.858ZM138.858 40H137.858V41H138.858V40ZM173.258 8.524V9.524H174.258V8.524H173.258ZM173.258 5.6H174.258V4.6H173.258V5.6ZM148.146 4.6C142.471 4.6 137.858 9.26773 137.858 14.931H139.858C139.858 10.3603 143.587 6.6 148.146 6.6V4.6ZM137.858 14.931C137.858 20.6403 142.474 25.262 148.146 25.262V23.262C143.584 23.262 139.858 19.5417 139.858 14.931H137.858ZM148.146 25.262H163.927V23.262H148.146V25.262ZM163.927 25.262C166.896 25.262 169.334 27.6909 169.334 30.712H171.334C171.334 26.5951 168.01 23.262 163.927 23.262V25.262ZM169.334 30.712C169.334 33.6857 166.901 36.119 163.927 36.119V38.119C168.005 38.119 171.334 34.7903 171.334 30.712H169.334ZM163.927 36.119H138.858V38.119H163.927V36.119ZM137.858 37.119V40H139.858V37.119H137.858ZM138.858 41H163.927V39H138.858V41ZM163.927 41C169.59 41 174.258 36.3873 174.258 30.712H172.258C172.258 35.2707 168.498 39 163.927 39V41ZM174.258 30.712C174.258 24.9967 169.593 20.381 163.927 20.381V22.381C168.495 22.381 172.258 26.1073 172.258 30.712H174.258ZM163.927 20.381H148.146V22.381H163.927V20.381ZM148.146 20.381C145.177 20.381 142.739 17.9521 142.739 14.931H140.739C140.739 19.0479 144.063 22.381 148.146 22.381V20.381ZM142.739 14.931C142.739 11.9573 145.172 9.524 148.146 9.524V7.524C144.068 7.524 140.739 10.8527 140.739 14.931H142.739ZM148.146 9.524H173.258V7.524H148.146V9.524ZM174.258 8.524V5.6H172.258V8.524H174.258ZM173.258 4.6H148.146V6.6H173.258V4.6ZM209.034 21.381V22.381H210.034V21.381H209.034ZM180.439 21.381H179.439V22.381H180.439V21.381ZM180.439 5.6H181.439V4.6H180.439V5.6ZM177.558 5.6V4.6H176.558V5.6H177.558ZM177.558 40H176.558V41H177.558V40ZM180.439 40V41H181.439V40H180.439ZM180.439 24.262V23.262H179.439V24.262H180.439ZM209.034 24.262H210.034V23.262H209.034V24.262ZM209.034 40H208.034V41H209.034V40ZM211.958 40V41H212.958V40H211.958ZM211.958 5.6H212.958V4.6H211.958V5.6ZM209.034 5.6V4.6H208.034V5.6H209.034ZM209.034 20.381H180.439V22.381H209.034V20.381ZM181.439 21.381V5.6H179.439V21.381H181.439ZM180.439 4.6H177.558V6.6H180.439V4.6ZM176.558 5.6V40H178.558V5.6H176.558ZM177.558 41H180.439V39H177.558V41ZM181.439 40V24.262H179.439V40H181.439ZM180.439 25.262H209.034V23.262H180.439V25.262ZM208.034 24.262V40H210.034V24.262H208.034ZM209.034 41H211.958V39H209.034V41ZM212.958 40V5.6H210.958V40H212.958ZM211.958 4.6H209.034V6.6H211.958V4.6ZM208.034 5.6V21.381H210.034V5.6H208.034ZM233.458 4.6C223.401 4.6 215.258 12.7893 215.258 22.8H217.258C217.258 13.8907 224.509 6.6 233.458 6.6V4.6ZM215.258 22.8C215.258 32.8553 223.403 41 233.458 41V39C224.507 39 217.258 31.7507 217.258 22.8H215.258ZM233.458 41C243.469 41 251.658 32.8569 251.658 22.8H249.658C249.658 31.7491 242.367 39 233.458 39V41ZM251.658 22.8C251.658 12.7877 243.47 4.6 233.458 4.6V6.6C242.366 6.6 249.658 13.8923 249.658 22.8H251.658ZM233.458 36.119C226.098 36.119 220.139 30.1597 220.139 22.8H218.139C218.139 31.2643 224.994 38.119 233.458 38.119V36.119ZM220.139 22.8C220.139 15.4852 226.096 9.524 233.458 9.524V7.524C224.996 7.524 218.139 14.3768 218.139 22.8H220.139ZM233.458 9.524C240.775 9.524 246.734 15.4833 246.734 22.8H248.734C248.734 14.3787 241.879 7.524 233.458 7.524V9.524ZM246.734 22.8C246.734 30.1617 240.773 36.119 233.458 36.119V38.119C241.881 38.119 248.734 31.2623 248.734 22.8H246.734ZM254.958 5.6V4.6H253.958V5.6H254.958ZM254.958 8.524H253.958V9.524H254.958V8.524ZM254.958 21.381V20.381H253.958V21.381H254.958ZM254.958 40H253.958V41H254.958V40ZM257.839 40V41H258.839V40H257.839ZM257.839 24.262V23.262H256.839V24.262H257.839ZM280.027 4.6H254.958V6.6H280.027V4.6ZM253.958 5.6V8.524H255.958V5.6H253.958ZM254.958 9.524H280.027V7.524H254.958V9.524ZM280.027 9.524C283.001 9.524 285.434 11.9573 285.434 14.931H287.434C287.434 10.8527 284.105 7.524 280.027 7.524V9.524ZM285.434 14.931C285.434 17.9521 282.996 20.381 280.027 20.381V22.381C284.11 22.381 287.434 19.0479 287.434 14.931H285.434ZM280.027 20.381H254.958V22.381H280.027V20.381ZM253.958 21.381V40H255.958V21.381H253.958ZM254.958 41H257.839V39H254.958V41ZM258.839 40V24.262H256.839V40H258.839ZM257.839 25.262H280.027V23.262H257.839V25.262ZM280.027 25.262C285.693 25.262 290.358 20.6463 290.358 14.931H288.358C288.358 19.5357 284.595 23.262 280.027 23.262V25.262ZM290.358 14.931C290.358 9.26171 285.696 4.6 280.027 4.6V6.6C284.592 6.6 288.358 10.3663 288.358 14.931H290.358Z" fill="white" fill-opacity="0.3"/>
</g>
<g clip-path="url(#clip0_406_4)">
<path d="M33.8306 24.8194L17.13 35.9475C16.6739 36.2541 16.1365 36.4173 15.5869 36.4162C15.1316 36.4192 14.6828 36.3076 14.2819 36.0919C13.8373 35.855 13.4657 35.5016 13.2067 35.0695C12.9477 34.6375 12.8113 34.1431 12.8119 33.6394V22.5C12.7857 22.1199 12.838 21.7385 12.9655 21.3795C13.0929 21.0204 13.2929 20.6914 13.5528 20.4129C13.8128 20.1344 14.1273 19.9124 14.4767 19.7606C14.8262 19.6087 15.2031 19.5304 15.5841 19.5304C15.9651 19.5304 16.342 19.6087 16.6914 19.7606C17.0408 19.9124 17.3553 20.1344 17.6153 20.4129C17.8753 20.6914 18.0752 21.0204 18.2027 21.3795C18.3302 21.7385 18.3824 22.1199 18.3563 22.5V28.4306L27.2569 22.5L14.0213 13.695C13.7158 13.4916 13.4534 13.2301 13.2491 12.9253C13.0447 12.6205 12.9024 12.2784 12.8302 11.9186C12.758 11.5588 12.7574 11.1883 12.8284 10.8283C12.8995 10.4683 13.0407 10.1258 13.2441 9.82031C13.4475 9.51487 13.709 9.25247 14.0138 9.04811C14.3186 8.84374 14.6607 8.70141 15.0205 8.62924C15.3803 8.55708 15.7507 8.55648 16.1108 8.62749C16.4708 8.69851 16.8133 8.83974 17.1188 9.04312L33.8306 20.1806C34.2104 20.4367 34.5214 20.7821 34.7365 21.1865C34.9515 21.5909 35.064 22.042 35.064 22.5C35.064 22.958 34.9515 23.4091 34.7365 23.8135C34.5214 24.2179 34.2104 24.5633 33.8306 24.8194V24.8194ZM22.5 0C18.0499 0 13.6998 1.3196 9.99968 3.79193C6.29957 6.26427 3.41569 9.77828 1.71272 13.8896C0.00974894 18.001 -0.435826 22.525 0.432341 26.8895C1.30051 31.2541 3.44343 35.2632 6.59011 38.4099C9.73679 41.5566 13.7459 43.6995 18.1105 44.5677C22.4751 45.4358 26.9991 44.9903 31.1104 43.2873C35.2217 41.5843 38.7357 38.7004 41.2081 35.0003C43.6804 31.3002 45 26.9501 45 22.5C44.9941 16.5345 42.6216 10.815 38.4033 6.59668C34.1851 2.3784 28.4656 0.00595661 22.5 0" fill="url(#paint1_linear_406_4)"/>
</g>
<defs>
<filter id="filter0_d_406_4" x="40.2998" y="5.60001" width="253.059" height="42.4" filterUnits="userSpaceOnUse" color-interpolation-filters="sRGB">
<feFlood flood-opacity="0" result="BackgroundImageFix"/>
<feColorMatrix in="SourceAlpha" type="matrix" values="0 0 0 0 0 0 0 0 0 0 0 0 0 0 0 0 0 0 127 0" result="hardAlpha"/>
<feOffset dy="4"/>
<feGaussianBlur stdDeviation="2"/>
<feComposite in2="hardAlpha" operator="out"/>
<feColorMatrix type="matrix" values="0 0 0 0 0 0 0 0 0 0 0 0 0 0 0 0 0 0 0.25 0"/>
<feBlend mode="normal" in2="BackgroundImageFix" result="effect1_dropShadow_406_4"/>
<feBlend mode="normal" in="SourceGraphic" in2="effect1_dropShadow_406_4" result="shape"/>
</filter>
<linearGradient id="paint0_linear_406_4" x1="167" y1="1" x2="167" y2="45" gradientUnits="userSpaceOnUse">
<stop stop-color="#0461A0"/>
<stop offset="1" stop-color="#0461A0" stop-opacity="0.55"/>
</linearGradient>
<linearGradient id="paint1_linear_406_4" x1="22.5" y1="0" x2="22.5" y2="45" gradientUnits="userSpaceOnUse">
<stop stop-color="#0461A0"/>
<stop offset="1" stop-color="#0461A0" stop-opacity="0.4"/>
</linearGradient>
<clipPath id="clip0_406_4">
<rect width="45" height="45" fill="white"/>
</clipPath>
</defs>
</svg>
