<svg width="45" height="45" viewBox="0 0 45 45" fill="none" xmlns="http://www.w3.org/2000/svg">
<g clip-path="url(#clip0_340_85)">
<path d="M33.8306 24.8194L17.13 35.9475C16.6739 36.2541 16.1365 36.4173 15.5869 36.4162C15.1316 36.4192 14.6828 36.3076 14.2819 36.0919C13.8373 35.855 13.4657 35.5016 13.2067 35.0695C12.9477 34.6375 12.8113 34.1431 12.8119 33.6394V22.5C12.7857 22.1199 12.838 21.7385 12.9655 21.3795C13.0929 21.0204 13.2929 20.6914 13.5528 20.4129C13.8128 20.1344 14.1273 19.9124 14.4767 19.7606C14.8262 19.6087 15.2031 19.5304 15.5841 19.5304C15.9651 19.5304 16.342 19.6087 16.6914 19.7606C17.0408 19.9124 17.3553 20.1344 17.6153 20.4129C17.8753 20.6914 18.0752 21.0204 18.2027 21.3795C18.3302 21.7385 18.3824 22.1199 18.3563 22.5V28.4306L27.2569 22.5L14.0213 13.695C13.7158 13.4916 13.4534 13.2301 13.2491 12.9253C13.0447 12.6205 12.9024 12.2784 12.8302 11.9186C12.758 11.5588 12.7574 11.1883 12.8284 10.8283C12.8995 10.4683 13.0407 10.1258 13.2441 9.82031C13.4475 9.51487 13.709 9.25247 14.0138 9.04811C14.3186 8.84374 14.6607 8.70141 15.0205 8.62924C15.3803 8.55708 15.7507 8.55648 16.1108 8.62749C16.4708 8.69851 16.8133 8.83974 17.1188 9.04312L33.8306 20.1806C34.2104 20.4367 34.5214 20.7821 34.7365 21.1865C34.9515 21.5909 35.064 22.042 35.064 22.5C35.064 22.958 34.9515 23.4091 34.7365 23.8135C34.5214 24.2179 34.2104 24.5633 33.8306 24.8194V24.8194ZM22.5 0C18.0499 0 13.6998 1.3196 9.99968 3.79193C6.29957 6.26427 3.41569 9.77828 1.71272 13.8896C0.00974894 18.001 -0.435826 22.525 0.432341 26.8895C1.30051 31.2541 3.44343 35.2632 6.59011 38.4099C9.73679 41.5566 13.7459 43.6995 18.1105 44.5677C22.4751 45.4358 26.9991 44.9903 31.1104 43.2873C35.2217 41.5843 38.7357 38.7004 41.2081 35.0003C43.6804 31.3002 45 26.9501 45 22.5C44.9941 16.5345 42.6216 10.815 38.4033 6.59668C34.1851 2.3784 28.4656 0.00595661 22.5 0" fill="url(#paint0_linear_340_85)"/>
</g>
<defs>
<linearGradient id="paint0_linear_340_85" x1="22.5" y1="0" x2="22.5" y2="45" gradientUnits="userSpaceOnUse">
<stop stop-color="#0461A0"/>
<stop offset="1" stop-color="#0461A0" stop-opacity="0.4"/>
</linearGradient>
<clipPath id="clip0_340_85">
<rect width="45" height="45" fill="white"/>
</clipPath>
</defs>
</svg>
